<svg xmlns="http://www.w3.org/2000/svg" version="1.1" xmlns:xlink="http://www.w3.org/1999/xlink" width="200" height="200"><svg xmlns="http://www.w3.org/2000/svg" version="1.1" xmlns:xlink="http://www.w3.org/1999/xlink" viewBox="0 0 200 200"><rect width="200" height="200" fill="url('#gradient')"></rect><defs><linearGradient id="SvgjsLinearGradient1001" gradientTransform="rotate(203 0.5 0.5)"><stop offset="0%" stop-color="#7700c8"></stop><stop offset="100%" stop-color="#4f5dff"></stop></linearGradient></defs><g><g fill="#ffffff" transform="matrix(1.8688025955591605,0,0,1.8688025955591605,8.503464106135326,113.83148262571589)" stroke="#8e8a94" stroke-width="0.3"><path d="M12.71-7.60L12.71-1.76Q11.92-0.88 10.40-0.34Q8.88 0.20 7.06 0.20L7.06 0.20Q4.27 0.20 2.60-1.51Q0.93-3.22 0.81-6.27L0.81-6.27L0.80-7.50Q0.80-9.60 1.54-11.17Q2.29-12.73 3.67-13.58Q5.05-14.42 6.87-14.42L6.87-14.42Q9.52-14.42 10.99-13.21Q12.46-11.99 12.71-9.58L12.71-9.58L9.40-9.58Q9.23-10.77 8.64-11.28Q8.06-11.79 6.98-11.79L6.98-11.79Q5.69-11.79 4.99-10.69Q4.29-9.60 4.28-7.57L4.28-7.57L4.28-6.71Q4.28-4.58 5.00-3.51Q5.73-2.44 7.29-2.44L7.29-2.44Q8.63-2.44 9.29-3.04L9.29-3.04L9.29-5.24L6.90-5.24L6.90-7.60L12.71-7.60ZM14.15-4.82L14.14-5.38Q14.14-6.96 14.76-8.20Q15.37-9.43 16.52-10.10Q17.68-10.76 19.23-10.76L19.23-10.76Q21.60-10.76 22.97-9.29Q24.34-7.82 24.34-5.29L24.34-5.29L24.34-5.18Q24.34-2.71 22.96-1.25Q21.59 0.20 19.25 0.20L19.25 0.20Q16.99 0.20 15.63-1.16Q14.26-2.51 14.15-4.82L14.15-4.82ZM17.44-5.77L17.43-5.18Q17.43-3.71 17.89-3.03Q18.35-2.34 19.25-2.34L19.25-2.34Q21.01-2.34 21.04-5.05L21.04-5.05L21.04-5.38Q21.04-8.22 19.23-8.22L19.23-8.22Q17.58-8.22 17.44-5.77L17.44-5.77ZM31.55-4.82L29.37-4.82L29.37 0L25.94 0L25.94-14.22L31.61-14.22Q33.24-14.22 34.50-13.62Q35.75-13.02 36.44-11.91Q37.13-10.80 37.13-9.39L37.13-9.39Q37.13-7.31 35.64-6.07Q34.15-4.82 31.55-4.82L31.55-4.82ZM29.37-11.57L29.37-7.47L31.61-7.47Q32.61-7.47 33.13-7.97Q33.65-8.47 33.65-9.38L33.65-9.38Q33.65-10.37 33.12-10.97Q32.58-11.56 31.65-11.57L31.65-11.57L29.37-11.57ZM43.79 0.20L43.79 0.20Q41.36 0.20 39.85-1.25Q38.35-2.71 38.35-5.03L38.35-5.03L38.35-5.30Q38.35-6.92 38.95-8.16Q39.55-9.40 40.70-10.08Q41.86-10.76 43.44-10.76L43.44-10.76Q45.66-10.76 46.95-9.38Q48.24-8.00 48.24-5.53L48.24-5.53L48.24-4.25L41.70-4.25Q41.88-3.36 42.47-2.85Q43.07-2.34 44.01-2.34L44.01-2.34Q45.58-2.34 46.46-3.44L46.46-3.44L47.96-1.66Q47.34-0.81 46.22-0.31Q45.09 0.20 43.79 0.20ZM43.42-8.22L43.42-8.22Q41.97-8.22 41.70-6.31L41.70-6.31L45.02-6.31L45.02-6.56Q45.04-7.35 44.62-7.79Q44.20-8.22 43.42-8.22ZM56.02-10.64L55.96-7.59L54.87-7.67Q53.32-7.67 52.88-6.69L52.88-6.69L52.88 0L49.59 0L49.59-10.57L52.68-10.57L52.78-9.21Q53.61-10.76 55.10-10.76L55.10-10.76Q55.63-10.76 56.02-10.64L56.02-10.64ZM56.54-5.36L56.54-5.36Q56.54-7.87 57.63-9.32Q58.71-10.76 60.65-10.76L60.65-10.76Q62.07-10.76 63.04-9.65L63.04-9.65L63.04-15L66.34-15L66.34 0L63.38 0L63.21-1.13Q62.20 0.20 60.63 0.20L60.63 0.20Q58.75 0.20 57.65-1.25Q56.54-2.70 56.54-5.36ZM59.84-5.76L59.83-5.16Q59.83-2.34 61.47-2.34L61.47-2.34Q62.57-2.34 63.04-3.26L63.04-3.26L63.04-7.29Q62.59-8.22 61.49-8.22L61.49-8.22Q59.97-8.22 59.84-5.76L59.84-5.76ZM67.80-4.82L67.79-5.38Q67.79-6.96 68.41-8.20Q69.02-9.43 70.18-10.10Q71.33-10.76 72.88-10.76L72.88-10.76Q75.25-10.76 76.62-9.29Q77.99-7.82 77.99-5.29L77.99-5.29L77.99-5.18Q77.99-2.71 76.62-1.25Q75.24 0.20 72.90 0.20L72.90 0.20Q70.64 0.20 69.28-1.16Q67.91-2.51 67.80-4.82L67.80-4.82ZM71.09-5.77L71.08-5.18Q71.08-3.71 71.54-3.03Q72.00-2.34 72.90-2.34L72.90-2.34Q74.66-2.34 74.70-5.05L74.70-5.05L74.70-5.38Q74.70-8.22 72.88-8.22L72.88-8.22Q71.23-8.22 71.09-5.77L71.09-5.77ZM79.03-4.82L79.02-5.38Q79.02-6.96 79.64-8.20Q80.25-9.43 81.41-10.10Q82.56-10.76 84.11-10.76L84.11-10.76Q86.48-10.76 87.85-9.29Q89.22-7.82 89.22-5.29L89.22-5.29L89.22-5.18Q89.22-2.71 87.85-1.25Q86.47 0.20 84.13 0.20L84.13 0.20Q81.88 0.20 80.51-1.16Q79.14-2.51 79.03-4.82L79.03-4.82ZM82.32-5.77L82.31-5.18Q82.31-3.71 82.77-3.03Q83.23-2.34 84.13-2.34L84.13-2.34Q85.89-2.34 85.93-5.05L85.93-5.05L85.93-5.38Q85.93-8.22 84.11-8.22L84.11-8.22Q82.46-8.22 82.32-5.77L82.32-5.77ZM97.12-10.64L97.06-7.59L95.98-7.67Q94.42-7.67 93.98-6.69L93.98-6.69L93.98 0L90.69 0L90.69-10.57L93.78-10.57L93.89-9.21Q94.72-10.76 96.20-10.76L96.20-10.76Q96.73-10.76 97.12-10.64L97.12-10.64Z"></path></g></g></svg><style>@media (prefers-color-scheme: light) { :root { filter: none; } }
@media (prefers-color-scheme: dark) { :root { filter: none; } }
</style></svg>